<svg height="512" viewBox="0 0 64 64" width="512" xmlns="http://www.w3.org/2000/svg"><g id="Layer_15" data-name="Layer 15"><path d="m2 26h52v32h-52z" fill="#f3a845"/><path d="m2 26 26 21 26-21z" fill="#eecc61"/><path d="m28 47-7.027-5.676-18.973 16.676h52l-18.973-16.676z" fill="#fce79c"/><circle cx="46" cy="22" fill="#bce4f8" r="16"/><path d="m46 6a15.985 15.985 0 0 0 -11.6 27h15.6a7 7 0 0 0 7-7v-15.6a15.929 15.929 0 0 0 -11-4.4z" fill="#e4f5fd"/><rect fill="#fff" height="10" rx="2" width="17" x="35" y="13"/><ellipse cx="46" cy="25" fill="#aa2b24" rx="6" ry="7"/><path d="m50 19.793a5.525 5.525 0 0 0 -4-1.793c-3.314 0-6 3.134-6 7a7.786 7.786 0 0 0 1.08 4h4.92a4 4 0 0 0 4-4z" fill="#d24034"/><path d="m40.585 22h10.83a6.007 6.007 0 0 0 -5.415-4 6.007 6.007 0 0 0 -5.415 4z" fill="#939393"/><path d="m46 18a5.37 5.37 0 0 1 3.338 1.2 4 4 0 1 0 -6.676 0 5.37 5.37 0 0 1 3.338-1.2z" fill="#939393"/><path d="m48 21a1.993 1.993 0 0 0 1.877-1.332 5.485 5.485 0 0 0 -3.877-1.668 5.786 5.786 0 0 0 -4.906 3z" fill="#bebebe"/><path d="m54 28h-1.515a8.838 8.838 0 0 0 .454-2h3.061v-2h-3.061a8.838 8.838 0 0 0 -.454-2h1.515a1 1 0 0 0 .707-.293l2-2-1.414-1.414-1.707 1.707h-2.13a7.654 7.654 0 0 0 -.866-1.025 4.953 4.953 0 0 0 -1.2-5.626 5.34 5.34 0 0 1 2.924-2.4l-.632-1.9a7.359 7.359 0 0 0 -4 3.261 4.7 4.7 0 0 0 -3.368 0 7.359 7.359 0 0 0 -4-3.261l-.632 1.9a5.34 5.34 0 0 1 2.924 2.4 4.953 4.953 0 0 0 -1.2 5.626 7.654 7.654 0 0 0 -.862 1.025h-2.13l-1.707-1.707-1.414 1.414 2 2a1 1 0 0 0 .707.293h1.515a8.838 8.838 0 0 0 -.454 2h-3.061v2h3.061a8.838 8.838 0 0 0 .454 2h-1.515a1 1 0 0 0 -.707.293l-2 2 1.414 1.414 1.707-1.707h2.13a6.461 6.461 0 0 0 10.912 0h2.13l1.707 1.707 1.414-1.414-2-2a1 1 0 0 0 -.707-.293zm-11.716-7a4.452 4.452 0 0 1 7.432 0zm6.716-4a2.984 2.984 0 0 1 -.1.73 6.141 6.141 0 0 0 -5.808 0 3 3 0 1 1 5.908-.73zm-8 8a7.022 7.022 0 0 1 .292-2h3.708v7.879c-2.279-.558-4-2.979-4-5.879zm6 5.879v-7.879h3.708a7.022 7.022 0 0 1 .292 2c0 2.9-1.721 5.321-4 5.879z"/><path d="m63 22a17 17 0 1 0 -33.719 3h-27.281a1 1 0 0 0 -1 1v32a1 1 0 0 0 1 1h52a1 1 0 0 0 1-1v-21.6a16.988 16.988 0 0 0 8-14.4zm-24.5 15.233-10.5 8.482-23.17-18.715h24.923a17.064 17.064 0 0 0 8.747 10.233zm-19.079 4.124-16.421 14.433v-27.7zm1.579 1.274 6.373 5.147a1 1 0 0 0 1.256 0l6.371-5.146 16.348 14.368h-46.696zm32 13.159-16.421-14.433 4.023-3.25a16.794 16.794 0 0 0 12.398-.633zm-7-18.79a15 15 0 1 1 15-15 15.017 15.017 0 0 1 -15 15z"/></g></svg>