<svg id="Capa_1" enable-background="new 0 0 512 512" height="512" viewBox="0 0 512 512" width="512" xmlns="http://www.w3.org/2000/svg"><g><g><g><g><g><g><g><g><path d="m197.323 505.244c-113.106-26.525-197.323-128.049-197.323-249.244 0-141.385 114.615-256 256-256s256 114.615 256 256c0 116.761-78.168 215.264-185.028 246.034z" fill="#c38778"/></g></g></g></g></g></g></g><path d="m326.968 502.035c96.843-27.884 170.122-111.398 183.011-213.716l-195.481-195.481-2.279 9.316-42.154-42.154 5.124 62.744-49.961-49.961-36.033 126.414 51.755 51.754.324 3.669-38.539-39.15-3.212-2.601-18.928 168.605 1.015 1.077 24.806 24.743 2.068 58.331z" fill="#a65d4e"/><g fill="#ffdecf"><path d="m228.746 84.037c0-10.921-8.853-19.775-19.775-19.775-10.921 0-19.775 8.854-19.775 19.775v20.631h39.55z"/><path d="m261.075 54.804c-1.836-.484-3.772-.724-5.776-.653-10.716.381-19.054 9.513-19.054 20.236v14.317h24.83z"/><path d="m236.245 119.22v87.594h-7.5v-71.847h-39.55v64.231s8.094-.005 8.128 0c13.431 2.055 23.765 16.253 24.427 28.81.026.494.039.991.039 1.491v49.386h-12.863c-.016-.017-.042-12.5-.042 0v-48.664c0-11.689-9.665-21.142-21.475-20.75-11.266.374-20.048 9.966-20.048 21.238v116.756c0 9.738 2.775 18.837 7.575 26.552 5.312 8.539 18.622 10.074 27.879 14.212.016.007.026.023.026.04 0 0-5.517 9.91-5.517 17.632v99.343c18.842 4.419 38.486 6.756 58.676 6.756 1.696 0 3.387-.02 5.075-.053v-392.727zm-14.437 172.165c.006-.004.011-.008.019 0-.008-.009-.013-.004-.019 0z"/></g><g fill="#ffcdbe"><path d="m275.795 73.913c0-10.926-8.867-19.758-19.795-19.75v34.542h19.795z"/><path d="m319.246 105.254c0-10.281-8.334-18.615-18.615-18.615-10.281 0-18.615 8.334-18.615 18.615v14.726h37.231z"/><path d="m357.063 144.603c0-8.624-6.91-15.635-15.496-15.795-8.854-.166-16.1 7.354-16.1 16.209v13.515h31.596z"/><path d="m325.467 189.048v38.046h-6.221v-76.381h-37.231v65.114h-6.221v-96.607h-19.794v392.78c24.625 0 48.437-3.477 70.974-9.966 0-30.716 0-64.756 0-86.971 0-14.664-11.926-36.513-11.926-36.513 0-.016 7.167-5.213 7.167-5.213 2.427 6.765 16.599 9.352 21.175 3.871 7.475-8.954 12.341-20.162 13.427-32.458h.245v-155.702z"/></g><g><path d="m189.196 104.016h39.55v31.276h-39.55z" fill="#fe6a16"/></g><g><path d="m282.016 119.654h37.231v31.276h-37.231z" fill="#f24500"/></g><g><path d="m325.467 158.097h31.596v31.276h-31.596z" fill="#f24500"/></g><g><path d="m236.245 88.378h39.55v31.276h-39.55z" fill="#fe6a16"/></g><g><path d="m256 88.378h19.795v31.276h-19.795z" fill="#f24500"/></g><g><path d="m256.467 292.882-.467-1.21-81.064 82.345c5.312 8.539 13.105 15.383 22.362 19.521.016.007.026.023.026.04v12.324l60.244-60.245z" fill="#fe6a16"/></g><g><path d="m256 347.225 70.974 67.838c0-14.664 0-24.176 0-24.176 0-.016.008-.03.022-.038 6.264-3.524 11.818-8.161 16.394-13.642l-87.39-85.535z" fill="#f24500"/></g><g><path d="m264.905 285.564c8.906-8.906 23.346-8.906 32.252 0s8.906 23.346 0 32.252z" fill="#f24500"/></g><g><path d="m300.772 321.431c8.906-8.906 23.346-8.906 32.252 0s8.906 23.346 0 32.252z" fill="#f24500"/></g><g><path d="m247.83 285.564c-8.906-8.906-23.346-8.906-32.252 0s-8.906 23.346 0 32.252z" fill="#fe6a16"/></g><g><path d="m211.963 321.431c-8.906-8.906-23.346-8.906-32.252 0s-8.906 23.346 0 32.252z" fill="#fe6a16"/></g><g><ellipse cx="256" cy="391.69" fill="#fe6a16" rx="20.525" ry="20.525" transform="matrix(.707 -.707 .707 .707 -201.986 295.743)"/></g><g><path d="m256 412.215c11.336 0 20.525-9.189 20.525-20.525 0-11.335-9.189-20.525-20.525-20.525z" fill="#f24500"/></g><g><ellipse cx="256" cy="439.542" fill="#fe6a16" rx="13.046" ry="13.046" transform="matrix(.209 -.978 .978 .209 -227.4 597.837)"/></g><g><path d="m256 452.588c7.205 0 13.046-5.841 13.046-13.046s-5.841-13.046-13.046-13.046z" fill="#f24500"/></g><g><ellipse cx="300.631" cy="173.735" fill="#f24500" rx="9.448" ry="9.448" transform="matrix(.208 -.978 .978 .208 68.302 431.778)"/></g><g><ellipse cx="341.265" cy="211.527" fill="#f24500" rx="9.448" ry="9.448" transform="matrix(.23 -.973 .973 .23 56.99 495.064)"/></g><g><circle cx="300.631" cy="202.079" fill="#f24500" r="9.448"/></g><g><circle cx="256.02" cy="136.758" fill="#fe6a16" r="9.448"/></g><g><path d="m256.02 127.31c-.007 0-.013.001-.02.001v18.894c.007 0 .013.001.02.001 5.218 0 9.448-4.23 9.448-9.448s-4.23-9.448-9.448-9.448z" fill="#f24500"/></g><g><circle cx="208.971" cy="158.097" fill="#fe6a16" r="9.448"/></g><g><ellipse cx="256.02" cy="165.102" fill="#fe6a16" rx="9.448" ry="9.448" transform="matrix(.798 -.602 .602 .798 -47.792 187.538)"/></g><g><path d="m256.02 155.654c-.007 0-.013.001-.02.001v18.894c.007 0 .013.001.02.001 5.218 0 9.448-4.23 9.448-9.448s-4.23-9.448-9.448-9.448z" fill="#f24500"/></g></g></svg>